<svg width="128" height="128" viewBox="0 0 128 128" fill="none" xmlns="http://www.w3.org/2000/svg">
<path d="M55.8531 76.7975C53.866 75.2019 21.2749 82.1158 5.22772 85.7721C3.33518 83.2194 4.04488 80.055 4.6363 78.7917C7.00197 76.7178 11.3785 75.2685 13.271 74.8031C45.9173 69.6976 56.9177 70.8144 58.3371 72.011C58.8102 73.1279 60.2691 74.3377 60.9393 74.8031C65.6707 76.3986 68.4306 75.4679 69.2192 74.8031C69.9762 74.8031 71.5849 73.4736 72.2946 72.8088C72.7677 72.1706 84.3989 72.011 90.1554 72.011C96.4007 72.3301 108.844 74.6702 114.285 75.8004C122.234 76.5981 123.354 79.4565 122.92 80.7862C123.109 85.413 120.397 86.171 119.017 85.9715C118.638 86.2906 87.7109 80.9192 72.2946 78.1935C66.4277 88.7237 59.9931 81.6504 57.5091 76.7975H55.8531Z" fill="#98D4F9"/>
<path d="M11.5046 39.9647C6.96851 42.7085 9.61457 49.8508 11.5046 53.0789C21.6785 50.9551 45.8211 50.766 61 67C47.1083 45.6946 31.2713 39.0231 25.0893 38.3506C17.3401 35.284 12.804 38.1488 11.5046 39.9647Z" fill="#98D4F9"/>
<path d="M16.1977 21.68C14.0285 21.68 15.2939 30.2934 16.1977 34.6001C26.9555 28.6074 51.8829 50.7878 63.0019 62.6271L65.9493 67C91.4145 40.126 107.606 36.9855 112.517 38.7743C119.119 21.2824 116.998 20.0897 115.112 21.68C89.2688 21.68 71.0188 48.978 65.124 62.6271C45.129 23.1906 24.1753 18.8971 16.1977 21.68Z" fill="#98D4F9"/>
<path d="M115.84 42.3691C98.641 39.066 76.7805 58.7467 68 69C89.1676 56.2832 110.131 53.3792 117.966 53.5169L118.793 49.801C119.738 43.5253 117.218 42.2315 115.84 42.3691Z" fill="#98D4F9"/>
<path d="M116.336 57.0631C124.302 56.121 120.287 65.9619 117.285 71C101.351 68.0164 80.4563 68.1865 72 68.6446C89.8293 58.5942 108.986 56.736 116.336 57.0631Z" fill="#98D4F9"/>
<path d="M10.4512 72C4.90777 63.2073 7.2653 59.4667 9.13699 58.6952C18.5106 56.2799 41.4061 54.5953 58 67.1794C25.122 67.1794 12.6016 70.393 10.4512 72Z" fill="#98D4F9"/>
<path d="M55.8531 76.7975C53.866 75.2019 21.2749 82.1158 5.22772 85.7721C3.33518 83.2194 4.04488 80.055 4.6363 78.7917C7.00197 76.7178 11.3785 75.2685 13.271 74.8031C45.9173 69.6976 56.9177 70.8144 58.3371 72.011C58.8102 73.1279 60.2691 74.3377 60.9393 74.8031C65.6707 76.3986 68.4306 75.4679 69.2192 74.8031C69.9762 74.8031 71.5849 73.4736 72.2946 72.8088C72.7677 72.1706 84.3989 72.011 90.1554 72.011C96.4007 72.3301 108.844 74.6702 114.285 75.8004C122.234 76.5981 123.354 79.4565 122.92 80.7862C123.109 85.413 120.397 86.171 119.017 85.9715C118.638 86.2906 87.7109 80.9192 72.2946 78.1935C66.4277 88.7237 59.9931 81.6504 57.5091 76.7975H55.8531Z" stroke="#718998" stroke-width="0.2"/>
<path d="M11.5046 39.9647C6.96851 42.7085 9.61457 49.8508 11.5046 53.0789C21.6785 50.9551 45.8211 50.766 61 67C47.1083 45.6946 31.2713 39.0231 25.0893 38.3506C17.3401 35.284 12.804 38.1488 11.5046 39.9647Z" stroke="#718998" stroke-width="0.2"/>
<path d="M16.1977 21.68C14.0285 21.68 15.2939 30.2934 16.1977 34.6001C26.9555 28.6074 51.8829 50.7878 63.0019 62.6271L65.9493 67C91.4145 40.126 107.606 36.9855 112.517 38.7743C119.119 21.2824 116.998 20.0897 115.112 21.68C89.2688 21.68 71.0188 48.978 65.124 62.6271C45.129 23.1906 24.1753 18.8971 16.1977 21.68Z" stroke="#718998" stroke-width="0.2"/>
<path d="M115.84 42.3691C98.641 39.066 76.7805 58.7467 68 69C89.1676 56.2832 110.131 53.3792 117.966 53.5169L118.793 49.801C119.738 43.5253 117.218 42.2315 115.84 42.3691Z" stroke="#718998" stroke-width="0.2"/>
<path d="M116.336 57.0631C124.302 56.121 120.287 65.9619 117.285 71C101.351 68.0164 80.4563 68.1865 72 68.6446C89.8293 58.5942 108.986 56.736 116.336 57.0631Z" stroke="#718998" stroke-width="0.2"/>
<path d="M10.4512 72C4.90777 63.2073 7.2653 59.4667 9.13699 58.6952C18.5106 56.2799 41.4061 54.5953 58 67.1794C25.122 67.1794 12.6016 70.393 10.4512 72Z" stroke="#718998" stroke-width="0.2"/>
<path d="M24.175 115.3C22.8416 115.3 21.6333 115.033 20.55 114.5C19.4833 113.967 18.6333 113.317 18 112.55L18.825 109.1C19.2916 110.033 19.9916 110.875 20.925 111.625C21.8583 112.375 22.975 112.75 24.275 112.75C25.4583 112.75 26.4333 112.375 27.2 111.625C27.9833 110.875 28.375 109.95 28.375 108.85C28.375 108.05 28.1833 107.392 27.8 106.875C27.4166 106.358 26.9833 105.95 26.5 105.65C26.0166 105.35 25.6333 105.133 25.35 105L22.6 103.6C22.1666 103.367 21.625 103.042 20.975 102.625C20.3416 102.208 19.7833 101.633 19.3 100.9C18.8166 100.167 18.575 99.2169 18.575 98.0502C18.575 96.9169 18.8333 95.9085 19.35 95.0252C19.8833 94.1419 20.6166 93.4502 21.55 92.9502C22.5 92.4502 23.5833 92.2002 24.8 92.2002C26 92.2002 27.0583 92.4169 27.975 92.8502C28.8916 93.2669 29.6083 93.7002 30.125 94.1502L29.3 97.6002C28.8833 96.9002 28.2666 96.2419 27.45 95.6252C26.6333 95.0085 25.7083 94.7002 24.675 94.7002C23.675 94.7002 22.875 95.0002 22.275 95.6002C21.675 96.1835 21.375 96.9085 21.375 97.7752C21.375 98.4419 21.525 98.9919 21.825 99.4252C22.1416 99.8585 22.4916 100.2 22.875 100.45C23.275 100.7 23.6 100.892 23.85 101.025L26.65 102.425C26.9833 102.592 27.4 102.825 27.9 103.125C28.4166 103.425 28.925 103.825 29.425 104.325C29.925 104.808 30.3416 105.408 30.675 106.125C31.0083 106.825 31.175 107.675 31.175 108.675C31.175 109.959 30.8666 111.1 30.25 112.1C29.65 113.1 28.825 113.883 27.775 114.45C26.725 115.017 25.525 115.3 24.175 115.3Z" fill="white" fill-opacity="0.99"/>
<path d="M36.8141 115V102.25H33.4141V100H36.8891V95H39.4391V100H43.1641V102.25H39.5141V115H36.8141Z" fill="white" fill-opacity="0.99"/>
<path d="M52.0406 115.3C50.9906 115.3 50.0073 115.042 49.0906 114.525C48.174 113.992 47.4323 113.225 46.8656 112.225C46.299 111.225 46.0156 110.025 46.0156 108.625V100H48.7156V108.25C48.7156 109.433 49.0656 110.483 49.7656 111.4C50.4823 112.3 51.4823 112.75 52.7656 112.75C53.8156 112.75 54.749 112.375 55.5656 111.625C56.399 110.858 56.8156 109.758 56.8156 108.325V100H59.5156V115H57.0156V112.575C56.4656 113.458 55.749 114.133 54.8656 114.6C53.999 115.067 53.0573 115.3 52.0406 115.3Z" fill="white" fill-opacity="0.99"/>
<path d="M70.7406 115.2C69.374 115.2 68.124 114.858 66.9906 114.175C65.8573 113.475 64.949 112.542 64.2656 111.375C63.599 110.208 63.2656 108.917 63.2656 107.5C63.2656 106.083 63.599 104.792 64.2656 103.625C64.949 102.458 65.8573 101.533 66.9906 100.85C68.124 100.15 69.374 99.8 70.7406 99.8C71.724 99.8 72.649 99.975 73.5156 100.325C74.3823 100.675 75.149 101.158 75.8156 101.775V91H78.5156V115H76.0156V113.025C75.349 113.692 74.5573 114.225 73.6406 114.625C72.7406 115.008 71.774 115.2 70.7406 115.2ZM71.0906 112.75C72.0406 112.75 72.899 112.517 73.6656 112.05C74.449 111.567 75.0656 110.933 75.5156 110.15C75.9823 109.35 76.2156 108.467 76.2156 107.5C76.2156 106.533 75.9823 105.658 75.5156 104.875C75.0656 104.075 74.449 103.442 73.6656 102.975C72.899 102.492 72.0406 102.25 71.0906 102.25C70.1406 102.25 69.274 102.492 68.4906 102.975C67.724 103.442 67.1073 104.075 66.6406 104.875C66.1906 105.658 65.9656 106.533 65.9656 107.5C65.9656 108.467 66.1906 109.35 66.6406 110.15C67.1073 110.933 67.724 111.567 68.4906 112.05C69.274 112.517 70.1406 112.75 71.0906 112.75Z" fill="white" fill-opacity="0.99"/>
<path d="M83.4484 115L82.1758 91H86.1758H90.1758L88.0984 115H83.4484Z" fill="#98D4F9"/>
<path d="M90.9375 115L99.1766 91H102.177L110.838 115H106.313L104.638 111H96.9875L95.3125 115H90.9375ZM98.4875 107.4H103.138L102.163 105.1C101.896 104.483 101.646 103.892 101.413 103.325C101.196 102.742 100.988 102.067 100.788 101.3C100.605 102.05 100.405 102.717 100.188 103.3C99.9708 103.883 99.7292 104.483 99.4625 105.1L98.4875 107.4Z" fill="#98D4F9"/>
</svg>
