<svg width="128" height="128" viewBox="0 0 128 128" fill="none" xmlns="http://www.w3.org/2000/svg">
<path d="M55.8531 53.5641C53.866 52.6216 21.2749 56.7056 5.22772 58.8654C3.33518 57.3575 4.04488 55.4883 4.6363 54.7421C7.00197 53.517 11.3785 52.6609 13.271 52.386C45.9173 49.3702 56.9177 50.0299 58.3371 50.7367C58.8102 51.3965 60.2691 52.1111 60.9393 52.386C65.6707 53.3285 68.4306 52.7787 69.2192 52.386C69.9762 52.386 71.5849 51.6007 72.2946 51.208C72.7677 50.831 84.3989 50.7367 90.1554 50.7367C96.4008 50.9252 108.844 52.3075 114.285 52.9751C122.234 53.4463 123.354 55.1348 122.92 55.9202C123.109 58.6533 120.397 59.101 119.017 58.9832C118.638 59.1717 87.7109 55.9988 72.2946 54.3887C66.4277 60.6089 59.9931 56.4307 57.5091 53.5641H55.8531Z" fill="#1CA8FF"/>
<path d="M11.3785 32.4768C6.83637 34.0789 9.48593 38.2493 11.3785 40.1342C21.5658 38.8941 45.7403 38.7837 60.9393 48.2628C47.0292 35.8225 31.1713 31.927 24.9811 31.5343C17.2217 29.7437 12.6796 31.4165 11.3785 32.4768Z" fill="#1CA8FF"/>
<path d="M15.9915 21.403C13.8151 21.403 15.0847 26.5079 15.9915 29.0604C26.7848 25.5087 51.7945 38.6543 62.9502 45.6711L65.9073 48.2628C91.4565 32.3354 107.701 30.4741 112.629 31.5343C119.253 21.1674 117.124 20.4605 115.232 21.403C89.3038 21.403 70.9935 37.5817 65.0793 45.6711C45.0183 22.2983 23.9954 19.7537 15.9915 21.403Z" fill="#1CA8FF"/>
<path d="M116.06 33.7726C98.8374 31.8877 76.9471 43.1186 68.1546 48.9697C89.3511 41.7128 110.343 40.0556 118.189 40.1342L119.017 38.0137C119.963 34.4324 117.44 33.6941 116.06 33.7726Z" fill="#1CA8FF"/>
<path d="M116.06 42.3725C124.008 41.8071 120.002 47.7131 117.006 50.7367C101.108 48.9461 80.259 49.0482 71.8214 49.3231C89.6113 43.2914 108.726 42.1762 116.06 42.3725Z" fill="#1CA8FF"/>
<path d="M10.4322 51.208C4.94383 45.836 7.27796 43.5506 9.13108 43.0793C18.4116 41.6036 41.0799 40.5744 57.5091 48.2628C24.9574 48.2628 12.5613 50.2262 10.4322 51.208Z" fill="#1CA8FF"/>
<path d="M55.8531 53.5641C53.866 52.6216 21.2749 56.7056 5.22772 58.8654C3.33518 57.3575 4.04488 55.4883 4.6363 54.7421C7.00197 53.517 11.3785 52.6609 13.271 52.386C45.9173 49.3702 56.9177 50.0299 58.3371 50.7367C58.8102 51.3965 60.2691 52.1111 60.9393 52.386C65.6707 53.3285 68.4306 52.7787 69.2192 52.386C69.9762 52.386 71.5849 51.6007 72.2946 51.208C72.7677 50.831 84.3989 50.7367 90.1554 50.7367C96.4008 50.9252 108.844 52.3075 114.285 52.9751C122.234 53.4463 123.354 55.1348 122.92 55.9202C123.109 58.6533 120.397 59.101 119.017 58.9832C118.638 59.1717 87.7109 55.9988 72.2946 54.3887C66.4277 60.6089 59.9931 56.4307 57.5091 53.5641H55.8531Z" stroke="#718998" stroke-width="0.2"/>
<path d="M11.3785 32.4768C6.83637 34.0789 9.48593 38.2493 11.3785 40.1342C21.5658 38.8941 45.7403 38.7837 60.9393 48.2628C47.0292 35.8225 31.1713 31.927 24.9811 31.5343C17.2217 29.7437 12.6796 31.4165 11.3785 32.4768Z" stroke="#718998" stroke-width="0.2"/>
<path d="M15.9915 21.403C13.8151 21.403 15.0847 26.5079 15.9915 29.0604C26.7848 25.5087 51.7945 38.6543 62.9502 45.6711L65.9073 48.2628C91.4565 32.3354 107.701 30.4741 112.629 31.5343C119.253 21.1674 117.124 20.4605 115.232 21.403C89.3038 21.403 70.9935 37.5817 65.0793 45.6711C45.0183 22.2983 23.9954 19.7537 15.9915 21.403Z" stroke="#718998" stroke-width="0.2"/>
<path d="M116.06 33.7726C98.8374 31.8877 76.9471 43.1186 68.1546 48.9697C89.3511 41.7128 110.343 40.0556 118.189 40.1342L119.017 38.0137C119.963 34.4324 117.44 33.6941 116.06 33.7726Z" stroke="#718998" stroke-width="0.2"/>
<path d="M116.06 42.3725C124.008 41.8071 120.002 47.7131 117.006 50.7367C101.108 48.9461 80.259 49.0482 71.8214 49.3231C89.6113 43.2914 108.726 42.1762 116.06 42.3725Z" stroke="#718998" stroke-width="0.2"/>
<path d="M10.4322 51.208C4.94383 45.836 7.27796 43.5506 9.13108 43.0793C18.4116 41.6036 41.0799 40.5744 57.5091 48.2628C24.9574 48.2628 12.5613 50.2262 10.4322 51.208Z" stroke="#718998" stroke-width="0.2"/>
<path d="M24 95.3C22.6666 95.3 21.4583 95.0333 20.375 94.5C19.3083 93.9667 18.4583 93.3167 17.825 92.55L18.65 89.1C19.1166 90.0333 19.8166 90.875 20.75 91.625C21.6833 92.375 22.8 92.75 24.1 92.75C25.2833 92.75 26.2583 92.375 27.025 91.625C27.8083 90.875 28.2 89.95 28.2 88.85C28.2 88.05 28.0083 87.3917 27.625 86.875C27.2416 86.3583 26.8083 85.95 26.325 85.65C25.8416 85.35 25.4583 85.1333 25.175 85L22.425 83.6C21.9916 83.3667 21.45 83.0417 20.8 82.625C20.1666 82.2083 19.6083 81.6333 19.125 80.9C18.6416 80.1667 18.4 79.2167 18.4 78.05C18.4 76.9167 18.6583 75.9083 19.175 75.025C19.7083 74.1417 20.4416 73.45 21.375 72.95C22.325 72.45 23.4083 72.2 24.625 72.2C25.825 72.2 26.8833 72.4167 27.8 72.85C28.7166 73.2667 29.4333 73.7 29.95 74.15L29.125 77.6C28.7083 76.9 28.0916 76.2417 27.275 75.625C26.4583 75.0083 25.5333 74.7 24.5 74.7C23.5 74.7 22.7 75 22.1 75.6C21.5 76.1833 21.2 76.9083 21.2 77.775C21.2 78.4417 21.35 78.9917 21.65 79.425C21.9666 79.8583 22.3166 80.2 22.7 80.45C23.1 80.7 23.425 80.8917 23.675 81.025L26.475 82.425C26.8083 82.5917 27.225 82.825 27.725 83.125C28.2416 83.425 28.75 83.825 29.25 84.325C29.75 84.8083 30.1666 85.4083 30.5 86.125C30.8333 86.825 31 87.675 31 88.675C31 89.9583 30.6916 91.1 30.075 92.1C29.475 93.1 28.65 93.8833 27.6 94.45C26.55 95.0167 25.35 95.3 24 95.3Z" fill="black"/>
<path d="M36.6382 95V82.25H33.2382V80H36.7132V75H39.2632V80H42.9882V82.25H39.3382V95H36.6382Z" fill="black"/>
<path d="M51.8632 95.3C50.8132 95.3 49.8299 95.0417 48.9132 94.525C47.9966 93.9917 47.2549 93.225 46.6882 92.225C46.1216 91.225 45.8382 90.025 45.8382 88.625V80H48.5382V88.25C48.5382 89.4333 48.8882 90.4833 49.5882 91.4C50.3049 92.3 51.3049 92.75 52.5882 92.75C53.6382 92.75 54.5716 92.375 55.3882 91.625C56.2216 90.8583 56.6382 89.7583 56.6382 88.325V80H59.3382V95H56.8382V92.575C56.2882 93.4583 55.5716 94.1333 54.6882 94.6C53.8216 95.0667 52.8799 95.3 51.8632 95.3Z" fill="black"/>
<path d="M70.5632 95.2C69.1966 95.2 67.9466 94.8583 66.8132 94.175C65.6799 93.475 64.7716 92.5417 64.0882 91.375C63.4216 90.2083 63.0882 88.9167 63.0882 87.5C63.0882 86.0833 63.4216 84.7917 64.0882 83.625C64.7716 82.4583 65.6799 81.5333 66.8132 80.85C67.9466 80.15 69.1966 79.8 70.5632 79.8C71.5466 79.8 72.4716 79.975 73.3382 80.325C74.2049 80.675 74.9716 81.1583 75.6382 81.775V71H78.3382V95H75.8382V93.025C75.1716 93.6917 74.3799 94.225 73.4632 94.625C72.5632 95.0083 71.5966 95.2 70.5632 95.2ZM70.9132 92.75C71.8632 92.75 72.7216 92.5167 73.4882 92.05C74.2716 91.5667 74.8882 90.9333 75.3382 90.15C75.8049 89.35 76.0382 88.4667 76.0382 87.5C76.0382 86.5333 75.8049 85.6583 75.3382 84.875C74.8882 84.075 74.2716 83.4417 73.4882 82.975C72.7216 82.4917 71.8632 82.25 70.9132 82.25C69.9632 82.25 69.0966 82.4917 68.3132 82.975C67.5466 83.4417 66.9299 84.075 66.4632 84.875C66.0132 85.6583 65.7882 86.5333 65.7882 87.5C65.7882 88.4667 66.0132 89.35 66.4632 90.15C66.9299 90.9333 67.5466 91.5667 68.3132 92.05C69.0966 92.5167 69.9632 92.75 70.9132 92.75Z" fill="black"/>
<path d="M83.2726 95L82 71H86H90L87.9226 95H83.2726Z" fill="#1CA8FF"/>
<path d="M90.7609 95L99 71H102L110.661 95H106.136L104.461 91H96.8109L95.1359 95H90.7609ZM98.3109 87.4H102.961L101.986 85.1C101.719 84.4833 101.469 83.8917 101.236 83.325C101.019 82.7417 100.811 82.0667 100.611 81.3C100.428 82.05 100.228 82.7167 100.011 83.3C99.7942 83.8833 99.5526 84.4833 99.2859 85.1L98.3109 87.4Z" fill="#1CA8FF"/>
</svg>
