<svg width="128" height="128" viewBox="0 0 128 128" fill="none" xmlns="http://www.w3.org/2000/svg">
<g clip-path="url(#clip0_6_66)">
<path d="M27.1201 84.0809H22.4327L61.0298 115.272L119.813 101.873L115.848 99.8033L27.1201 84.0809Z" fill="#A7A9AC"/>
<path d="M30.9779 72.5977L70.2738 65.3461L115.848 84.0809L61.0298 95.2368L30.9779 72.5977Z" fill="#14BAAB"/>
<path d="M93.043 74.7061C92.4484 76.0907 91.6947 77.4002 90.719 78.588C88.5106 81.2776 85.6203 83.1197 82.5479 84.4848C76.0726 87.3625 68.6566 88.0155 61.7424 86.9937C56.0428 86.1513 50.4153 83.4311 45.5017 80.328C42.1066 78.1841 38.3127 75.3668 36.2533 71.6238L30.9779 72.5971L61.0298 95.2361L115.848 84.0802L93.043 74.7061Z" fill="#D1D3D4"/>
<path d="M30.9779 72.5977C30.9779 72.5977 23.6483 76.2181 27.1204 84.0809L61.9989 111.666C61.9989 111.666 56.0534 104.834 61.0298 95.2367L30.9779 72.5977Z" fill="#007F7A"/>
<path d="M115.848 84.0809L61.0298 95.2368C61.0298 95.2368 54.606 103.811 61.9988 111.666L115.848 99.446V84.0809Z" fill="#D6CCB1"/>
<path d="M59.4605 97.2906L115.848 86.0105V84.0809L61.0295 95.2368C61.0295 95.2368 59.4605 95.8993 59.4605 97.2906Z" fill="#007F7A"/>
<path d="M61.9989 111.666L115.848 99.8033V97.8737L60.4696 109.962C60.4696 109.962 60.3495 110.307 61.9989 111.666Z" fill="#007F7A"/>
<path opacity="0.1" d="M70.2737 65.3461L115.848 84.0806L61.0298 95.2364C61.0298 95.2364 97.9968 86.2152 70.2737 65.3461Z" fill="white"/>
<path d="M17.2112 61.8585L46.7095 48.1034L113.75 57.3412L89.429 71.8093L17.2112 61.8585Z" fill="#F36D36"/>
<path d="M90.9454 54.1988C90.5188 54.1401 89.0079 55.5837 88.5988 55.8516C87.7496 56.4075 86.8793 56.9286 85.9924 57.414C84.2395 58.3739 82.4167 59.1974 80.5635 59.9142C73.0629 62.8158 65.0423 63.9376 57.0892 64.0519C54.8179 64.0848 52.5448 64.0238 50.2768 63.8916C45.0622 63.5879 39.742 62.7897 34.8221 60.8645C33.5981 60.3855 32.4045 59.8312 31.2449 59.1967C30.7982 58.9525 27.9913 56.8322 27.6948 56.9705L17.2112 61.8589L89.429 71.8096L113.75 57.3415L90.9454 54.1988Z" fill="#D1D3D4"/>
<path d="M87.1409 90.4937L111.479 75.8819L113.557 58.9157L85.897 75.5859C85.897 75.5859 81.3814 84.5065 87.1409 90.4937Z" fill="#D6CCB1"/>
<path d="M86.2646 73.7239L86.0538 75.4422L113.557 58.9157L113.75 57.3412L86.2646 73.7239Z" fill="#9D451C"/>
<path d="M86.298 89.3671L87.1409 90.4937L111.479 75.8818L111.672 74.3076L86.298 89.3671Z" fill="#9D451C"/>
<path d="M87.1409 90.4937L14.9227 80.5422C9.52813 70.3638 17.2112 61.8582 17.2112 61.8582L89.4291 71.809C89.4291 71.809 82.3378 79.6839 87.1409 90.4937Z" fill="#9D451C"/>
<path d="M29.3104 63.5257C29.3104 63.5257 23.7906 72.7797 27.0223 82.2097L31.8154 82.87C31.8154 82.87 28.8074 73.6 34.1036 64.186L29.3104 63.5257Z" fill="#D1D3D4"/>
<path d="M36.8593 64.566C36.8593 64.566 31.3395 73.82 34.5711 83.25L39.3642 83.9104C39.3642 83.9104 36.3565 74.6403 41.6524 65.2263L36.8593 64.566Z" fill="#D1D3D4"/>
<path d="M71.9683 69.4036C71.9683 69.4036 66.4485 78.6576 69.6802 88.0876L74.4733 88.748C74.4733 88.748 71.4659 79.478 76.7618 70.0639L71.9683 69.4036Z" fill="#D1D3D4"/>
<path d="M56.9066 51.1098L69.8478 52.8931L52.1357 64.0276L37.1778 61.9665L56.9066 51.1098Z" fill="white"/>
<path d="M7.05389 61.1496L7.84923 50.8904L60.7086 29.5455L59.5147 38.447L7.05389 61.1496Z" fill="#76201E"/>
<path d="M54.2246 40.1011L111.516 48.8292L55.2376 72.5527L7.1662 59.7038L54.2246 40.1011Z" fill="#EC524F"/>
<path d="M7.16618 59.7038L7.05389 61.1496L55.1674 74.1859L55.296 72.5277L7.16618 59.7038Z" fill="#842825"/>
<path d="M55.1674 74.186L55.296 72.5278L111.516 48.8292L111.357 50.8894L55.1674 74.186Z" fill="#AD3A38"/>
<path d="M12.3443 50.2211C12.3443 50.2211 13.2983 56.3149 11.7446 58.0769L56.3722 69.9518L59.5309 61.3077L12.3443 50.2211Z" fill="#9D9B83"/>
<path d="M60.0346 30.1183L11.9749 50.3769L62.5551 62.0185L108.368 42.707L60.0346 30.1183Z" fill="#BFBC9E"/>
<path d="M108.368 42.707L59.5309 61.308L56.3721 69.9519L102.863 50.3546L108.368 42.707Z" fill="#777664"/>
<path d="M60.7086 29.5455L111.425 39.9481L55.1458 63.6716L7.84924 50.8904L60.7086 29.5455Z" fill="#EC524F"/>
<path d="M7.84926 50.8904L7.72644 52.4735L55.8508 65.3726L56.0107 63.3066L7.84926 50.8904Z" fill="#842825"/>
<path d="M55.8508 65.3726L56.0107 63.3066L111.425 39.9481L111.265 42.0141L55.8508 65.3726Z" fill="#AD3A38"/>
<path d="M31.8157 35.5812L84.8074 36.5561C84.8074 36.5561 94.6459 37.253 95.1316 43.7332C95.1316 43.7332 95.0812 46.5696 92.8151 46.1703C92.8151 46.1703 90.9165 45.5599 91.9685 42.5406C91.9685 42.5406 91.4042 39.1191 79.8427 39.0443L32.4739 41.971L31.8157 35.5812Z" fill="#A27232"/>
<path d="M90.6273 29.5231L38.9463 41.2802C38.9463 41.2802 29.457 43.968 30.3019 50.4112C30.3019 50.4112 30.9286 53.1779 33.0669 52.3249C33.0669 52.3249 34.8003 51.3403 33.1561 48.5988C33.1561 48.5988 33.011 45.1341 44.3139 42.7041L91.2852 35.9129L90.627 29.5231L90.6273 29.5231Z" fill="#BE853C"/>
<path d="M67.0797 37.8786C66.6604 38.3853 65.868 38.3841 65.2449 38.0499C63.0239 36.8329 60.3291 37.1105 58.4028 38.7548C57.8612 39.2089 57.0854 39.3716 56.5713 38.9611C56.0587 38.5558 56.1611 37.5052 56.9418 36.8402C59.5721 34.5948 63.2524 34.2157 66.285 35.8778C67.1848 36.3697 67.4989 37.3773 67.0797 37.8786Z" fill="#D69644"/>
<path d="M67.0797 37.8786C66.6604 38.3853 65.868 38.3841 65.2449 38.0499C63.0239 36.8329 60.3291 37.1105 58.4028 38.7548C57.8612 39.2089 57.0854 39.3716 56.5713 38.9611C56.0587 38.5558 56.1611 37.5052 56.9418 36.8402C59.5721 34.5948 63.2524 34.2157 66.285 35.8778C67.1848 36.3697 67.4989 37.3773 67.0797 37.8786Z" fill="#D69644"/>
<path d="M67.0305 37.4009C66.6111 37.9073 65.8187 37.9061 65.1958 37.5725C62.9746 36.3552 60.2799 36.6328 58.3536 38.2773C57.812 38.7309 57.0362 38.8939 56.5221 38.4833C56.3995 38.3859 56.3152 38.2498 56.2639 38.0926C56.2328 38.4515 56.3357 38.7747 56.5713 38.9611C57.0854 39.3716 57.8612 39.2089 58.4027 38.7548C60.3288 37.1106 63.0239 36.8329 65.2449 38.0499C65.868 38.3841 66.6607 38.3853 67.0797 37.8786C67.2726 37.6481 67.3072 37.3107 67.2038 36.9657C67.1857 37.13 67.1312 37.2804 67.0305 37.4009Z" fill="#BCBEC0"/>
<path d="M59.1407 35.9149C59.1407 35.9149 63.1974 33.9466 66.1595 36.3491C66.1595 36.3491 66.3003 36.905 65.6256 36.8416C65.6256 36.8416 63.7772 34.7099 59.2007 36.4971C59.2007 36.4971 58.6321 36.1541 59.1407 35.9149Z" fill="white"/>
<path d="M30.674 34.4276C33.909 34.0937 35.5597 30.5493 37.9728 28.7477C42.8369 25.1162 50.2841 25.7073 54.6969 30.0684C56.2111 31.5653 57.5362 33.871 58.29 35.9001C58.29 35.9001 58.8574 37.5038 57.9686 39.1323C57.9686 39.1323 54.5483 29.0344 45.6655 29.1523C45.6655 29.1523 38.2566 28.7528 34.8845 35.6612C34.8845 35.6612 32.8615 39.7691 33.8316 43.0115C33.8316 43.0115 32.2862 40.759 29.814 41.082C29.8137 41.0827 28.2563 34.6767 30.674 34.4276Z" fill="#150000"/>
<path d="M44.6193 28.7288C37.9098 29.42 33.0406 35.5141 33.7438 42.3406C34.447 49.1672 40.4562 54.1407 47.1658 53.4496C53.8753 52.7585 58.7442 46.6644 58.041 39.8378C57.3378 33.0112 51.3288 28.0377 44.6193 28.7288ZM46.9761 51.6086C41.2662 52.1968 36.1518 47.9638 35.5533 42.1542C34.9549 36.3444 39.099 31.158 44.8089 30.5698C50.5192 29.9816 55.6333 34.2143 56.2317 40.0242C56.8302 45.8337 52.6864 51.0204 46.9761 51.6086Z" fill="#D69644"/>
<path d="M44.6193 28.7288C37.9098 29.42 33.0406 35.5141 33.7438 42.3406C34.447 49.1672 40.4562 54.1407 47.1658 53.4496C53.8753 52.7585 58.7442 46.6644 58.041 39.8378C57.3378 33.0112 51.3288 28.0377 44.6193 28.7288ZM47.0596 52.4186C40.9097 53.0521 35.4019 48.4933 34.7574 42.2362C34.1129 35.9792 38.576 30.3933 44.7255 29.7599C50.8757 29.1263 56.3837 33.6851 57.0283 39.9421C57.6728 46.1992 53.2097 51.785 47.0596 52.4186Z" fill="#B16E36"/>
<path opacity="0.3" d="M46.9761 51.6086C52.6863 51.0204 56.8302 45.8339 56.2317 40.0242C55.6333 34.2145 50.5191 29.9816 44.8089 30.5698C39.0987 31.158 34.9549 36.3445 35.5533 42.1542C36.1518 47.9639 41.2659 52.1968 46.9761 51.6086Z" fill="white"/>
<path opacity="0.3" d="M50.2403 45.5774C44.8125 44.6211 39.961 40.7548 38.7209 34.8975C38.6314 34.4749 38.5624 34.0487 38.5089 33.6205C36.3917 35.7884 35.2152 38.8715 35.5533 42.1542C36.1518 47.9641 41.2662 52.1968 46.9761 51.6086C50.8399 51.2106 53.9844 48.7058 55.4296 45.3286C53.7725 45.785 52.0138 45.89 50.2403 45.5774Z" fill="white"/>
<path d="M91.8833 28.1225C88.6482 28.4551 86.3099 25.3216 83.58 24.0498C78.0777 21.4861 70.9077 23.5829 67.4763 28.752C66.2993 30.5261 65.4717 33.0536 65.1474 35.1937C65.1474 35.1937 64.9192 36.8794 66.1209 38.2926C66.1209 38.2926 67.4109 27.7094 76.1315 26.0141C76.1315 26.0141 83.3032 24.1126 88.0127 30.1885C88.0127 30.1885 90.831 33.7978 90.5422 37.1698C90.5422 37.1698 91.5957 34.6496 94.0821 34.4618C94.0825 34.4624 94.3011 27.8735 91.8833 28.1225Z" fill="#150000"/>
<path d="M66.1939 38.998C66.8971 45.8246 72.9064 50.7981 79.6156 50.107C86.3251 49.4158 91.1944 43.3217 90.4912 36.4952C89.788 29.6686 83.7787 24.6951 77.0691 25.3862C70.3599 26.0773 65.4907 32.1714 66.1939 38.998ZM68.0032 38.8116C67.4047 33.0018 71.5488 27.8154 77.2588 27.2272C82.969 26.639 88.0831 30.8717 88.6816 36.6816C89.28 42.4914 85.1362 47.6778 79.426 48.266C73.716 48.8542 68.6016 44.6211 68.0032 38.8116Z" fill="#D69644"/>
<path d="M66.1939 38.998C66.8971 45.8246 72.9064 50.7981 79.6156 50.107C86.3251 49.4158 91.1944 43.3217 90.4912 36.4952C89.788 29.6686 83.7787 24.6951 77.0691 25.3862C70.3599 26.0773 65.4907 32.1714 66.1939 38.998ZM67.2072 38.8936C66.5627 32.6365 71.0255 27.0507 77.1756 26.4172C83.3255 25.7837 88.8336 30.3424 89.4781 36.5995C90.1226 42.8566 85.6596 48.4424 79.5097 49.0759C73.3595 49.7094 67.8518 45.1507 67.2072 38.8936Z" fill="#B16E36"/>
<path opacity="0.3" d="M79.4259 48.266C85.1361 47.6778 89.28 42.4913 88.6815 36.6816C88.0831 30.8719 82.9689 26.639 77.2587 27.2272C71.5486 27.8154 67.4047 33.0019 68.0031 38.8116C68.6016 44.6213 73.7158 48.8542 79.4259 48.266Z" fill="white"/>
<path opacity="0.3" d="M75.0011 43.0268C80.1203 40.9841 84.0814 36.2101 84.1017 30.2228C84.1029 29.791 84.0836 29.3596 84.049 28.9295C86.5637 30.6202 88.344 33.3987 88.6821 36.6815C89.2806 42.4913 85.1368 47.6777 79.4265 48.2659C75.5627 48.6639 71.974 46.8527 69.8704 43.841C71.5857 43.95 73.3285 43.6944 75.0011 43.0268Z" fill="white"/>
<path d="M67.9154 68.9007L100.274 55.4844L104.259 56.0333L72.7136 69.5064L67.9154 68.9007Z" fill="#A7A9AC"/>
<path d="M47.4789 85.0283L50.638 87.4081L78.9803 91.5838L85.4689 90.2631L47.4789 85.0283Z" fill="#A7A9AC"/>
<path d="M88.8206 89.5274L105.149 79.6823L107.412 80.6128L94.7366 88.3782L88.8206 89.5274Z" fill="#A7A9AC"/>
</g>
<defs>
<clipPath id="clip0_6_66">
<rect width="128" height="128" fill="white"/>
</clipPath>
</defs>
</svg>
